<svg width="26" height="26" viewBox="0 0 26 26" fill="none" xmlns="http://www.w3.org/2000/svg">
<g id="github_icon">
<path id="Vector" fill-rule="evenodd" clip-rule="evenodd" d="M13.0279 2.16675C7.05986 2.16675 2.22278 7.00383 2.22278 12.9719C2.22278 17.7451 5.31786 21.7957 9.61219 23.2257C10.1528 23.3232 10.3478 22.9906 10.3478 22.7046C10.3478 22.4478 10.3391 21.7675 10.3359 20.8672C7.32961 21.5194 6.69478 19.4177 6.69478 19.4177C6.20511 18.1697 5.49553 17.8372 5.49553 17.8372C4.51511 17.1666 5.57028 17.1817 5.57028 17.1817C6.65578 17.2576 7.22453 18.2954 7.22453 18.2954C8.18869 19.9464 9.75519 19.4697 10.3684 19.1935C10.4669 18.4947 10.7486 18.0181 11.0563 17.7483C8.65778 17.4764 6.13578 16.5491 6.13578 12.4075C6.13578 11.2299 6.55719 10.2636 7.24511 9.50958C7.13569 9.2355 6.76194 8.13591 7.35236 6.64958C7.35236 6.64958 8.25911 6.35816 10.3229 7.75566C11.2043 7.51589 12.1134 7.3935 13.0269 7.39166C13.9403 7.39315 14.8495 7.51554 15.7309 7.75566C17.7957 6.35708 18.7014 6.64958 18.7014 6.64958C19.2918 8.13591 18.9213 9.2355 18.8086 9.50958C19.5019 10.2636 19.9179 11.2288 19.9179 12.4075C19.9179 16.5599 17.3938 17.4721 14.9866 17.7397C15.3712 18.0733 15.7179 18.732 15.7179 19.7395C15.7179 21.1847 15.7049 22.3503 15.7049 22.7046C15.7049 22.9938 15.8977 23.3297 16.4491 23.2235C20.7413 21.7913 23.8331 17.744 23.8331 12.9719C23.8331 7.00383 18.996 2.16675 13.0279 2.16675Z" fill="#CCCCCC"/>
</g>
</svg>
