<svg width="28" height="26" viewBox="0 0 28 26" fill="none" xmlns="http://www.w3.org/2000/svg">
<g id="pinterest_icon">
<path id="Vector" d="M10.5467 23.3351C11.6667 23.6492 12.7984 23.8334 14 23.8334C17.0942 23.8334 20.0617 22.692 22.2496 20.6604C24.4375 18.6288 25.6667 15.8733 25.6667 13.0001C25.6667 11.5774 25.3649 10.1687 24.7786 8.85434C24.1923 7.53998 23.333 6.34573 22.2496 5.33976C21.1663 4.33379 19.8801 3.53581 18.4647 2.99139C17.0492 2.44696 15.5321 2.16675 14 2.16675C12.468 2.16675 10.9509 2.44696 9.5354 2.99139C8.11994 3.53581 6.83381 4.33379 5.75046 5.33976C3.56254 7.3714 2.33337 10.1269 2.33337 13.0001C2.33337 17.6042 5.44837 21.5584 9.84671 23.1184C9.74171 22.2734 9.63671 20.8759 9.84671 19.9117L11.1884 14.5601C11.1884 14.5601 10.85 13.9317 10.85 12.9351C10.85 11.4401 11.8534 10.3242 12.9967 10.3242C14 10.3242 14.4667 11.0067 14.4667 11.8842C14.4667 12.8159 13.8017 14.1484 13.4634 15.4267C13.265 16.4884 14.07 17.4201 15.2367 17.4201C17.3134 17.4201 18.9234 15.3617 18.9234 12.4584C18.9234 9.85841 16.9167 8.08175 14.035 8.08175C10.745 8.08175 8.80837 10.3567 8.80837 12.7509C8.80837 13.6826 9.13504 14.6251 9.67171 15.2426C9.77671 15.3076 9.77671 15.3942 9.74171 15.5567L9.40338 16.7376C9.40338 16.9217 9.27504 16.9867 9.07671 16.8567C7.58337 16.2501 6.72004 14.2784 6.72004 12.6859C6.72004 9.26258 9.33337 6.15341 14.3734 6.15341C18.3867 6.15341 21.5134 8.82925 21.5134 12.3826C21.5134 16.1092 19.0284 19.0992 15.47 19.0992C14.3384 19.0992 13.23 18.5359 12.8334 17.8751L12.0517 20.4426C11.7834 21.3742 11.0484 22.6201 10.5467 23.3676V23.3351Z" fill="#CCCCCC"/>
</g>
</svg>
