<svg width="26" height="26" viewBox="0 0 26 26" fill="none" xmlns="http://www.w3.org/2000/svg">
<g id="twitter_icon">
<path id="Vector" d="M21.2692 8.66326C21.2832 8.85284 21.2832 9.04134 21.2832 9.22984C21.2832 14.9986 16.8925 21.6459 8.86825 21.6459C6.39608 21.6459 4.09941 20.9298 2.16675 19.6862C2.51775 19.7263 2.85575 19.7403 3.22083 19.7403C5.18491 19.7451 7.09336 19.0883 8.63858 17.8759C7.72795 17.8594 6.8452 17.559 6.11359 17.0166C5.38197 16.4741 4.83801 15.7167 4.55766 14.8502C4.82741 14.8903 5.09825 14.9173 5.38208 14.9173C5.77316 14.9173 6.16641 14.8632 6.5315 14.7689C5.54324 14.5694 4.65459 14.0337 4.01667 13.253C3.37874 12.4723 3.03092 11.4947 3.03233 10.4865V10.4323C3.61408 10.7563 4.289 10.9588 5.004 10.9859C4.40501 10.5879 3.91386 10.0478 3.57437 9.41378C3.23487 8.77978 3.05759 8.0716 3.05833 7.35243C3.05833 6.54209 3.27391 5.79893 3.652 5.15109C4.74848 6.49987 6.11604 7.60329 7.66611 8.38989C9.21618 9.17649 10.9142 9.62874 12.6502 9.71734C12.583 9.39234 12.5418 9.05543 12.5418 8.71743C12.5415 8.1443 12.6542 7.57674 12.8734 7.04719C13.0926 6.51763 13.414 6.03647 13.8193 5.63121C14.2245 5.22595 14.7057 4.90454 15.2353 4.68534C15.7648 4.46615 16.3324 4.35348 16.9055 4.35376C18.1622 4.35376 19.2964 4.88026 20.0937 5.73176C21.0707 5.54285 22.0075 5.18622 22.8627 4.67768C22.5371 5.68606 21.855 6.54112 20.9442 7.08268C21.8106 6.98385 22.6574 6.756 23.4564 6.40668C22.8596 7.2767 22.1201 8.03963 21.2692 8.66326Z" fill="#CCCCCC"/>
</g>
</svg>
